<svg xmlns="http://www.w3.org/2000/svg" width="22" height="18" viewBox="0 0 22 18"><g><g><path fill="#646363" d="M11.023 10.446A2.553 2.553 0 0 0 8.47 7.899a.832.832 0 0 1-.832-.83c0-.735.898-1.108 1.42-.587a.862.862 0 0 0 1.218 0 .857.857 0 0 0 0-1.214 2.545 2.545 0 0 0-.945-.599v-.147a.86.86 0 0 0-1.721 0v.15a2.551 2.551 0 0 0-1.694 2.397A2.553 2.553 0 0 0 8.47 9.616c.46 0 .833.372.833.83 0 .735-.898 1.108-1.42.587a.863.863 0 0 0-1.218 0 .857.857 0 0 0 0 1.214c.271.271.593.473.945.599v.147a.86.86 0 0 0 1.721 0v-.15a2.552 2.552 0 0 0 1.693-2.397zm2.556-8.43a6.754 6.754 0 0 1 6.702 6.746 6.754 6.754 0 0 1-6.702 6.746c4.46-3.39 4.467-10.096 0-13.492zM1.72 8.762c0-4.65 4.615-7.91 8.989-6.363a6.758 6.758 0 0 1 4.494 6.363 6.758 6.758 0 0 1-4.494 6.363c-4.382 1.549-8.99-1.721-8.99-6.363zM11 .684C5.56-1.022 0 3.053 0 8.762c0 5.699 5.552 9.787 11 8.078 5.44 1.706 11-2.369 11-8.078 0-5.699-5.552-9.786-11-8.078z"/></g></g></svg>