<svg xmlns="http://www.w3.org/2000/svg" width="30" height="21" viewBox="0 0 30 21"><g><g><path fill="#fff" d="M15 13.594a3.285 3.285 0 0 0 3.281-3.281A3.285 3.285 0 0 0 15 7.03a3.285 3.285 0 0 0-3.281 3.282A3.285 3.285 0 0 0 15 13.592zm-5.625-3.281A5.631 5.631 0 0 1 15 4.686a5.631 5.631 0 0 1 5.625 5.625A5.631 5.631 0 0 1 15 15.939a5.631 5.631 0 0 1-5.625-5.626zm18.291-7.97H2.344v15.938h25.322zM30 1.173v18.281c0 .647-.525 1.172-1.172 1.172H1.172A1.172 1.172 0 0 1 0 19.453V1.172C0 .525.525 0 1.172 0h27.656C29.475 0 30 .525 30 1.172zM24.14 9.14a1.172 1.172 0 1 1 0 2.343 1.172 1.172 0 0 1 0-2.343zM7.032 10.313a1.172 1.172 0 1 1-2.343 0 1.172 1.172 0 0 1 2.343 0z"/></g></g></svg>