<svg xmlns="http://www.w3.org/2000/svg" width="28" height="28" viewBox="0 0 28 28"><g><g><g><path fill="#fff" d="M19.624 21.593a9.456 9.456 0 0 0 3.768-6.519h2.16c-.317 3.476-2.154 6.48-4.845 8.395zm-5.63-.3c-4.025 0-7.299-3.275-7.299-7.3 0-4.024 3.274-7.298 7.299-7.298 4.024 0 7.298 3.274 7.298 7.299 0 4.024-3.274 7.298-7.298 7.298zm-4.842 3.245l1.083-1.868a9.432 9.432 0 0 0 3.765.78c1.338 0 2.61-.279 3.765-.78l1.083 1.868A11.608 11.608 0 0 1 14 25.589c-1.702 0-3.347-.363-4.848-1.051zm-1.86-1.069c-2.69-1.914-4.527-4.918-4.844-8.395h2.16a9.456 9.456 0 0 0 3.768 6.52zm0-18.938l1.084 1.876a9.456 9.456 0 0 0-3.768 6.519h-2.16c.317-3.476 2.154-6.48 4.845-8.395zM14 2.398c1.702 0 3.347.364 4.848 1.052l-1.083 1.867A9.433 9.433 0 0 0 14 4.537c-1.338 0-2.61.28-3.765.78L9.152 3.45A11.608 11.608 0 0 1 14 2.398zm6.707 2.133c2.69 1.914 4.528 4.918 4.845 8.395h-2.16a9.456 9.456 0 0 0-3.768-6.52zM14 .25C6.4.25.25 6.4.25 14S6.4 27.75 14 27.75 27.75 21.6 27.75 14 21.6.25 14 .25z"/></g></g></g></svg>