<svg xmlns="http://www.w3.org/2000/svg" width="102" height="101" viewBox="0 0 102 101"><g><g opacity=".12"><path fill="#fff" d="M51.002 23.91a1.993 1.993 0 1 0 .002 3.986 1.993 1.993 0 0 0-.002-3.986z"/></g><g opacity=".12"><path fill="#fff" d="M77.134 24.197L52.033 9.057a1.99 1.99 0 0 0-2.058 0l-25.102 15.14a1.99 1.99 0 0 0 1.03 3.698h17.132a1.992 1.992 0 1 0 0-3.984h-9.973l17.942-10.823 17.941 10.823h-9.973a1.992 1.992 0 1 0 0 3.984h17.133a1.992 1.992 0 0 0 1.03-3.698z"/></g><g opacity=".12"><path fill="#fff" d="M7.969 96.023c0-1.098.894-1.992 1.992-1.992h82.078c1.098 0 1.992.894 1.992 1.992v1.992H7.97zm19.922-9.961v3.994H11.953v-3.994zm-3.985-34.265v30.28h-7.968v-30.28zm3.985-7.969v3.985H11.953v-3.985zm66.14-7.969v3.985H7.97v-3.985zM51.001 4.37l42.29 27.506H8.709zm39.046 43.444H74.109v-3.985h15.938zm-3.984 34.264h-7.97v-30.28h7.97zm-54.188 7.97V84.07c0-1.1-.892-1.993-1.992-1.993H27.89v-30.28h1.992c1.1 0 1.992-.892 1.992-1.992v-5.977h38.25v5.977c0 1.1.892 1.992 1.992 1.992h1.992v30.28h-1.992c-1.1 0-1.992.893-1.992 1.993v5.976zm42.234.01v-3.995h15.938v3.994zm25.899 7.958h-1.992v-1.992a5.986 5.986 0 0 0-3.985-5.634v-6.32c0-1.099-.891-1.992-1.992-1.992h-1.992v-30.28h1.992c1.1 0 1.992-.892 1.992-1.992v-5.977h1.993c1.1 0 1.992-.892 1.992-1.992v-5.977h1.992a1.993 1.993 0 0 0 1.086-3.662L52.086.322a1.993 1.993 0 0 0-2.172 0L.906 32.197a1.992 1.992 0 0 0 1.086 3.662h1.992v5.977c0 1.1.892 1.992 1.993 1.992h1.992v5.977c0 1.1.892 1.992 1.992 1.992h1.992v30.28H9.961c-1.1 0-1.992.893-1.992 1.993v6.32a5.986 5.986 0 0 0-3.985 5.633v1.992H1.992a1.993 1.993 0 0 0 0 3.984h98.016a1.992 1.992 0 1 0 0-3.984z"/></g><g opacity=".12"><path fill="#fff" d="M51.005 80.884c-7.692 0-13.95-6.255-13.95-13.944 0-7.69 6.258-13.946 13.95-13.946 7.692 0 13.95 6.256 13.95 13.946 0 7.69-6.258 13.944-13.95 13.944zM51 49.01c-9.887 0-17.93 8.043-17.93 17.93 0 9.886 8.043 17.929 17.93 17.929 9.886 0 17.93-8.043 17.93-17.93 0-9.886-8.044-17.929-17.93-17.929z"/></g><g opacity=".12"><path fill="#fff" d="M52.997 78.888v-2.335a5.986 5.986 0 0 0 3.984-5.633 5.983 5.983 0 0 0-5.977-5.977 1.995 1.995 0 0 1-1.992-1.992c0-1.099.894-1.992 1.992-1.992.706 0 1.45.36 2.155 1.041a1.992 1.992 0 0 0 2.77-2.864c-1.01-.978-2.022-1.531-2.932-1.833v-2.32a1.992 1.992 0 1 0-3.985 0v2.334a5.986 5.986 0 0 0-3.984 5.634 5.984 5.984 0 0 0 5.976 5.977c1.098 0 1.993.893 1.993 1.992a1.995 1.995 0 0 1-1.993 1.992c-.851 0-1.77-.536-2.587-1.507a1.992 1.992 0 1 0-3.05 2.564c1.065 1.267 2.318 2.15 3.645 2.594v2.325a1.992 1.992 0 0 0 3.985 0z"/></g></g></svg>