<svg xmlns="http://www.w3.org/2000/svg" width="14" height="20" viewBox="0 0 14 20"><g><g><path fill="#646363" d="M4.064 8.926h5.729a.716.716 0 1 1 0 1.432h-5.73a.716.716 0 1 1 0-1.432zm6.445 3.58c0 .396-.32.717-.716.717h-5.73a.716.716 0 1 1 0-1.433h5.73c.395 0 .716.321.716.717zm3.223-9.166v15.11c0 .396-.32.717-.716.717H.84a.716.716 0 0 1-.716-.716V3.34c0-.396.32-.716.716-.716h3.685A2.511 2.511 0 0 1 6.928.834c1.134 0 2.094.755 2.403 1.79h3.685c.395 0 .716.32.716.716zm-1.433.716H8.72a.716.716 0 0 1-.716-.716 1.075 1.075 0 0 0-2.149 0c0 .395-.32.716-.716.716h-3.58v13.678h10.741z"/></g></g></svg>