<svg xmlns="http://www.w3.org/2000/svg" width="20" height="20" viewBox="0 0 20 20"><g><g opacity=".6"><path fill="#84929c" d="M19.72.249a.844.844 0 0 0-1.198 0l-3.124 3.147a1.66 1.66 0 0 1 1.188 1.187l3.133-3.13a.855.855 0 0 0 0-1.204zm-8.9 13.911c.47 0 .832.36.832.832-.001.472-.363.83-.833.832H4.993a.816.816 0 0 1-.832-.832V9.17c.001-.473.362-.831.832-.832.47 0 .834.36.833.832l-.004 3.867 9.576-9.641a1.644 1.644 0 0 0-.417-.06H1.665C.745 3.337 0 4.083 0 5.002v13.322c0 .917.739 1.66 1.651 1.66h13.33c.92 0 1.664-.746 1.664-1.665V5.001c0-.145-.025-.284-.06-.42l-9.59 9.577z"/></g></g></svg>