<svg xmlns="http://www.w3.org/2000/svg" width="21" height="21" viewBox="0 0 21 21"><g><g><g><path fill="#fff" d="M17.4 9.64a7.02 7.02 0 0 1 0 1.72.82.82 0 0 0 .255.702l1.405 1.302-1.813 3.132-1.837-.563a.82.82 0 0 0-.735.13 6.996 6.996 0 0 1-1.492.861.82.82 0 0 0-.48.572l-.43 1.863H8.646l-.43-1.863a.82.82 0 0 0-.48-.572 6.997 6.997 0 0 1-1.492-.861.82.82 0 0 0-.735-.13l-1.837.563-1.813-3.132 1.405-1.302a.82.82 0 0 0 .256-.702 7.021 7.021 0 0 1 0-1.72.82.82 0 0 0-.256-.702L1.858 7.636l1.813-3.132 1.837.563a.82.82 0 0 0 .735-.13 6.996 6.996 0 0 1 1.492-.861.82.82 0 0 0 .48-.572l.43-1.863h3.628l.43 1.863a.82.82 0 0 0 .48.572 6.997 6.997 0 0 1 1.492.861.82.82 0 0 0 .735.13l1.837-.563 1.813 3.132-1.405 1.302a.82.82 0 0 0-.256.702zm1.67 1.495a8.622 8.622 0 0 0 0-1.27l1.586-1.472a.82.82 0 0 0 .152-1.013L18.34 3.118a.82.82 0 0 0-.95-.373l-2.073.634a8.647 8.647 0 0 0-1.107-.639L13.726.636a.82.82 0 0 0-.8-.636H7.992a.82.82 0 0 0-.8.636L6.708 2.74a8.644 8.644 0 0 0-1.107.64l-2.073-.635a.82.82 0 0 0-.95.373L.11 7.38a.82.82 0 0 0 .152 1.013L1.85 9.864a8.622 8.622 0 0 0 0 1.271L.262 12.607A.82.82 0 0 0 .11 13.62l2.468 4.262a.82.82 0 0 0 .95.373l2.073-.634c.353.24.723.454 1.107.639l.484 2.104a.82.82 0 0 0 .8.636h4.934a.82.82 0 0 0 .8-.636l.484-2.104a8.644 8.644 0 0 0 1.107-.64l2.073.635a.82.82 0 0 0 .95-.373l2.468-4.262a.82.82 0 0 0-.152-1.013z"/></g><g><path fill="#fff" d="M10.461 12.142c-.904 0-1.64-.736-1.64-1.64 0-.905.736-1.641 1.64-1.641.905 0 1.64.736 1.64 1.64 0 .905-.735 1.64-1.64 1.64zm0-4.922a3.285 3.285 0 0 0-3.281 3.281 3.285 3.285 0 0 0 3.281 3.281 3.285 3.285 0 0 0 3.281-3.28 3.285 3.285 0 0 0-3.28-3.282z"/></g></g></g></svg>