<?xml version="1.0" encoding="utf-8"?>
<svg width="22px" height="22px" viewBox="0 0 22 22" version="1.1" xmlns:xlink="http://www.w3.org/1999/xlink" xmlns="http://www.w3.org/2000/svg">
  <g id="icon-/-token">
    <g id="Shape-2" transform="translate(1.833333 0.9166667)">
      <path d="M17.6171 14.1797L15.6119 14.1797L15.6119 7.37628L17.6171 7.37628C17.9294 7.37628 18.2056 7.17393 18.2999 6.87623C18.3941 6.57849 18.2845 6.25404 18.0291 6.07439L9.57868 0.130383C9.33147 -0.0434611 9.00186 -0.0434611 8.75461 0.130383L0.304163 6.07439C0.0487493 6.25404 -0.0607852 6.57849 0.0334238 6.87623C0.127597 7.17393 0.403886 7.37628 0.716161 7.37628L2.72137 7.37628L2.72137 14.1797L0.716161 14.1797C0.320634 14.1797 1.55673e-05 14.5003 1.55673e-05 14.8958L1.55673e-05 17.6172C1.55673e-05 18.0127 0.320634 18.3333 0.716161 18.3333L17.6171 18.3333C18.0126 18.3333 18.3332 18.0127 18.3332 17.6172L18.3332 14.8958C18.3332 14.5003 18.0126 14.1797 17.6171 14.1797ZM15.3542 5.94398L9.16661 1.59168L2.97907 5.94398L15.3542 5.94398ZM4.15363 7.37628L5.44269 7.37628L5.44269 14.1797L4.15363 14.1797L4.15363 7.37628ZM11.4583 14.1797L11.4583 7.37628L6.87494 7.37628L6.87494 14.1797L11.4583 14.1797ZM14.1796 7.37628L14.1796 14.1797L12.8905 14.1797L12.8905 7.37628L14.1796 7.37628ZM1.43227 15.612L1.43227 16.901L16.9009 16.901L16.9009 15.612L1.43227 15.612Z" id="Shape" fill="#646363" fill-rule="evenodd" stroke="none" />
    </g>
  </g>
</svg>