<svg xmlns="http://www.w3.org/2000/svg" width="17" height="20" viewBox="0 0 17 20"><defs><clipPath id="iqxaa"><path fill="#fff" d="M0 5.79a3 3 0 0 1 3-3h11a3 3 0 0 1 3 3v11a3 3 0 0 1-3 3H3a3 3 0 0 1-3-3z"/></clipPath><clipPath id="iqxab"><path fill="#fff" d="M0 4.79a2 2 0 0 1 2-2h13a2 2 0 0 1 2 2v2.474H0z"/></clipPath></defs><g><g><g><g><path fill="#979797" d="M3.8 9.5h2.237v2.237H3.8z"/></g><g><path fill="#979797" d="M7.38 9.5h2.237v2.237H7.38z"/></g><g><path fill="#979797" d="M10.96 9.5h2.237v2.237H10.96z"/></g><g><path fill="#979797" d="M3.8 13.53h2.237v2.237H3.8z"/></g><g><path fill="#979797" d="M7.38 13.53h2.237v2.237H7.38z"/></g><g><path fill="#979797" d="M10.96 13.53h2.237v2.237H10.96z"/></g></g><g><path fill="none" stroke="#979797" stroke-miterlimit="20" stroke-width="2" d="M0 5.79a3 3 0 0 1 3-3h11a3 3 0 0 1 3 3v11a3 3 0 0 1-3 3H3a3 3 0 0 1-3-3z" clip-path="url(&quot;#iqxaa&quot;)"/></g><g><path fill="none" stroke="#979797" stroke-miterlimit="20" stroke-width="2" d="M0 4.79a2 2 0 0 1 2-2h13a2 2 0 0 1 2 2v2.474H0v0z" clip-path="url(&quot;#iqxab&quot;)"/></g><g><g><g><path fill="none" stroke="#979797" stroke-linecap="square" stroke-miterlimit="20" d="M4.477 3.24V1.45"/></g><g><path fill="none" stroke="#979797" stroke-linecap="square" stroke-miterlimit="20" d="M12.527 3.24V1.45"/></g></g></g></g></g></svg>