<svg xmlns="http://www.w3.org/2000/svg" width="24" height="20" viewBox="0 0 24 20"><g><g><g><path fill="#0e3570" d="M11.995 13.693a1.403 1.403 0 1 1 0-2.808 1.403 1.403 0 1 1 0 2.808zm4.62-7.344l-3.057 3.059A3.256 3.256 0 0 0 12 9.012a3.285 3.285 0 0 0-3.279 3.283c0 1.81 1.47 3.282 3.279 3.282a3.285 3.285 0 0 0 2.884-4.842l3.056-3.06a.94.94 0 0 0-1.326-1.326zM12 0C5.37 0 0 5.362 0 11.995c0 2.632.838 5.131 2.423 7.227a.938.938 0 0 0 1.495-1.131 10.026 10.026 0 0 1-2.043-6.096c0-5.593 4.528-10.12 10.125-10.12 5.593 0 10.125 4.523 10.125 10.12 0 2.22-.707 4.328-2.043 6.096a.938.938 0 0 0 1.495 1.13A11.887 11.887 0 0 0 24 11.996C24 5.365 18.633 0 12 0z"/></g></g></g></svg>