<?xml version="1.0" encoding="utf-8"?>
<svg viewBox="0 0 50 42" version="1.1" xmlns:xlink="http://www.w3.org/1999/xlink" xmlns="http://www.w3.org/2000/svg">
  <g id="Group-7">
    <path d="M1.999 0L48.001 0Q48.0992 0 48.1969 0.00962573Q48.2947 0.0192515 48.391 0.0384102Q48.4873 0.057569 48.5813 0.0860763Q48.6753 0.114584 48.766 0.152165Q48.8567 0.189746 48.9433 0.236039Q49.0299 0.282333 49.1116 0.336892Q49.1932 0.391452 49.2691 0.453752Q49.3451 0.516052 49.4145 0.585494Q49.4839 0.654935 49.5462 0.730848Q49.6085 0.806761 49.6631 0.888415Q49.7177 0.970069 49.764 1.05668Q49.8102 1.14329 49.8478 1.23402Q49.8854 1.32474 49.9139 1.41872Q49.9424 1.5127 49.9616 1.60901Q49.9807 1.70533 49.9904 1.80306Q50 1.9008 50 1.999L50 40.001Q50 40.0992 49.9904 40.1969Q49.9807 40.2947 49.9616 40.391Q49.9424 40.4873 49.9139 40.5813Q49.8854 40.6753 49.8478 40.766Q49.8102 40.8567 49.764 40.9433Q49.7177 41.0299 49.6631 41.1116Q49.6085 41.1932 49.5462 41.2691Q49.4839 41.3451 49.4145 41.4145Q49.3451 41.4839 49.2692 41.5462Q49.1932 41.6085 49.1116 41.6631Q49.0299 41.7177 48.9433 41.764Q48.8567 41.8103 48.766 41.8478Q48.6752 41.8854 48.5813 41.9139Q48.4873 41.9424 48.391 41.9616Q48.2947 41.9808 48.1969 41.9904Q48.0992 42 48.001 42L1.999 42Q1.9008 42 1.80306 41.9904Q1.70533 41.9808 1.60901 41.9616Q1.5127 41.9424 1.41872 41.9139Q1.32474 41.8854 1.23402 41.8478Q1.14329 41.8103 1.05668 41.764Q0.970069 41.7177 0.888415 41.6631Q0.806761 41.6086 0.730848 41.5463Q0.654935 41.484 0.585494 41.4145Q0.516052 41.3451 0.453752 41.2692Q0.391452 41.1932 0.336892 41.1116Q0.282333 41.0299 0.236039 40.9433Q0.189746 40.8567 0.152165 40.766Q0.114584 40.6753 0.0860763 40.5813Q0.057569 40.4873 0.0384102 40.391Q0.0192515 40.2947 0.00962573 40.1969Q0 40.0992 0 40.001L0 1.999Q0 1.9008 0.00962573 1.80306Q0.0192515 1.70533 0.0384102 1.60901Q0.057569 1.5127 0.0860763 1.41872Q0.114584 1.32474 0.152165 1.23402Q0.189746 1.14329 0.236039 1.05668Q0.282333 0.970069 0.336892 0.888415Q0.391452 0.806761 0.453752 0.730848Q0.516052 0.654935 0.585494 0.585494Q0.654935 0.516052 0.730848 0.453752Q0.806761 0.391452 0.888415 0.336892Q0.970069 0.282333 1.05668 0.236039Q1.14329 0.189746 1.23402 0.152165Q1.32474 0.114584 1.41872 0.0860763Q1.5127 0.057569 1.60901 0.0384102Q1.70533 0.0192515 1.80306 0.00962573Q1.9008 0 1.999 0L1.999 0Z" id="Rectangle-Copy-5" fill="#0E3570" stroke="none" />
    <g id="Shape-4" transform="translate(15 11)">
      <path d="M19.5675 9.30115L16.3556 7.69531L19.5675 6.08932C20.1419 5.80215 20.1426 4.9794 19.5675 4.69177L10.3487 0.0823975C10.1287 -0.0274658 9.86988 -0.0274658 9.64985 0.0823975L0.431099 4.69177C-0.143394 4.9791 -0.144005 5.80185 0.431099 6.08932L3.64292 7.69531L0.431099 9.30115C-0.143394 9.58847 -0.144005 10.4111 0.431099 10.6987L3.64292 12.3047L0.431099 13.9105C-0.143394 14.1978 -0.144005 15.0204 0.431099 15.3081L9.64985 19.9174C9.86942 20.0272 10.1282 20.0276 10.3487 19.9174L19.5675 15.3081C20.1419 15.0208 20.1426 14.1982 19.5675 13.9105L16.3556 12.3047L19.5675 10.6987C20.1419 10.4115 20.1426 9.58878 19.5675 9.30115ZM17.471 5.39063L9.99928 1.65466L2.5275 5.39063L9.99928 9.12643L17.471 5.39063ZM2.5275 10L9.99928 13.7358L17.471 10L14.6087 8.56873L10.3487 10.6987C10.1282 10.8089 9.86958 10.8084 9.64985 10.6987L5.3899 8.56873L2.5275 10ZM17.471 14.6094L9.99928 18.3452L2.5275 14.6094L5.3899 13.1781L9.64985 15.3081C9.86958 15.4178 10.1282 15.4182 10.3487 15.3081L14.6087 13.1781L17.471 14.6094Z" id="Shape" fill="#FFFFFF" fill-rule="evenodd" stroke="none" />
    </g>
  </g>
</svg>