<svg xmlns="http://www.w3.org/2000/svg" width="24" height="24" viewBox="0 0 24 24"><g><g><g/><g><g><path fill="#fff" d="M22 9.927v6.146A6.935 6.935 0 0 1 15.073 23H8.927A6.935 6.935 0 0 1 2 16.073V13a.781.781 0 1 1 1.563 0v3.073a5.37 5.37 0 0 0 5.364 5.364h6.146a5.37 5.37 0 0 0 5.364-5.364V9.927a5.37 5.37 0 0 0-5.364-5.364H8.927c-1.405 0-2.74.557-3.728 1.51h1.477a.781.781 0 1 1 0 1.562H3.603a.783.783 0 0 1-.78-.78V3.78a.781.781 0 1 1 1.562 0v.917A6.903 6.903 0 0 1 8.927 3h6.146A6.935 6.935 0 0 1 22 9.927zm-9.222 2.75l2.838 2.843c.304.306.304.8 0 1.105a.778.778 0 0 1-1.103 0l-3.066-3.073A.782.782 0 0 1 11.22 13V8.39a.78.78 0 1 1 1.559 0z"/></g></g></g></g></svg>