<svg xmlns="http://www.w3.org/2000/svg" width="36" height="37" viewBox="0 0 36 37"><g><g><path fill="#fff" d="M33.644 27.876l-1.62.434a16.06 16.06 0 0 0 2.244-9.103A16.218 16.218 0 0 0 28.213 7.39a1.406 1.406 0 1 0-1.756 2.197 13.402 13.402 0 0 1 5.003 9.767c.16 3.058-.716 6.002-2.497 8.501l-.85-3.171a1.406 1.406 0 1 0-2.717.728l1.533 5.719a1.421 1.421 0 0 0 1.972.927l5.47-1.466a1.406 1.406 0 1 0-.727-2.716zm-10.696 4.647a13.401 13.401 0 0 1-10.96-.551c-2.728-1.39-4.84-3.623-6.114-6.415l3.171.85a1.406 1.406 0 0 0 .728-2.718l-5.72-1.532c-.826-.221-1.7.353-1.785 1.23L.798 28.87a1.407 1.407 0 0 0 2.717.729l.434-1.62a16.06 16.06 0 0 0 6.763 6.499 16.218 16.218 0 0 0 13.261.663 1.407 1.407 0 0 0-1.025-2.618zM3.24 19.195a1.407 1.407 0 0 0 1.602-1.18A13.402 13.402 0 0 1 10.804 8.8c2.57-1.668 5.56-2.38 8.619-2.087l-2.325 2.323a1.406 1.406 0 1 0 1.99 1.989l4.19-4.187c.606-.606.553-1.663-.188-2.176L19.088.662a1.408 1.408 0 0 0-1.99 1.989l1.183 1.182a16.08 16.08 0 0 0-9.01 2.607A16.217 16.217 0 0 0 2.06 17.594a1.406 1.406 0 0 0 1.18 1.601z"/></g></g></svg>