<svg xmlns="http://www.w3.org/2000/svg" width="24" height="24" viewBox="0 0 24 24"><g><g><g><g><path fill="#fff" d="M1.562 18.437v-1.406h16.885v1.406zm2.97-10.39h1.405v7.422H4.531zm7.968 0v7.422h-5V8.047zm2.969 0v7.422h-1.407V8.047zm-5.47-6.31l6.751 4.737H3.25zm9.22 13.732H17.03V8.047h2.188a.781.781 0 0 0 .45-1.42L10.448.142a.781.781 0 0 0-.899 0L.332 6.627a.781.781 0 0 0 .45 1.42h2.187v7.422H.78A.781.781 0 0 0 0 16.25v2.969c0 .431.35.781.781.781H19.22c.431 0 .78-.35.78-.781V16.25a.781.781 0 0 0-.78-.781z"/></g></g></g></g></svg>