<?xml version="1.0" encoding="utf-8"?>
<svg width="22px" height="22px" viewBox="0 0 22 22" version="1.1" xmlns:xlink="http://www.w3.org/1999/xlink" xmlns="http://www.w3.org/2000/svg">
    <path d="M13.9817 0.0648218C14.2143 -0.0385718 14.4834 -0.0172539 14.6969 0.121444C14.9103 0.260179 15.0391 0.49742 15.0391 0.751957L15.0391 18.4981C15.0391 18.9134 14.7024 19.25 14.2871 19.25L0.751953 19.25C0.336649 19.25 0 18.9134 0 18.4981L0 0.751957C0 0.49742 0.128772 0.260179 0.342214 0.121444C0.555618 -0.0172539 0.82478 -0.0385718 1.05736 0.0648218L4.13563 1.433L7.21394 0.0648218C7.40839 -0.0215776 7.63033 -0.0215776 7.82475 0.0648218L10.9032 1.433L13.9817 0.0648218ZM1.50391 17.7461L13.5352 17.7461L13.5352 1.90902L11.2086 2.943C11.0142 3.0294 10.7922 3.0294 10.5978 2.943L7.51931 1.57482L4.441 2.943C4.24654 3.0294 4.0246 3.0294 3.83019 2.943L1.50391 1.90906L1.50391 17.7461ZM3.00781 7.18116L4.8877 7.18116C5.303 7.18116 5.63965 7.51781 5.63965 7.93311C5.63965 8.34841 5.303 8.68506 4.8877 8.68506L3.00781 8.68506C2.59251 8.68506 2.25586 8.34841 2.25586 7.93311C2.25586 7.51781 2.59251 7.18116 3.00781 7.18116ZM12.0313 7.18116L6.76758 7.18116C6.35227 7.18116 6.01563 7.51781 6.01563 7.93311C6.01563 8.34841 6.35227 8.68506 6.76758 8.68506L12.0313 8.68506C12.4466 8.68506 12.7832 8.34841 12.7832 7.93311C12.7832 7.51781 12.4466 7.18116 12.0313 7.18116ZM3.00781 10.5649L12.0313 10.5649C12.4466 10.5649 12.7832 10.9016 12.7832 11.3169C12.7832 11.7322 12.4466 12.0689 12.0313 12.0689L3.00781 12.0689C2.59251 12.0689 2.25586 11.7322 2.25586 11.3169C2.25586 10.9016 2.59251 10.5649 3.00781 10.5649Z" transform="translate(3.208333 1.833333)" id="Combined-Shape" fill="#646363" fill-rule="evenodd" stroke="none" />
</svg>