<?xml version="1.0" encoding="utf-8"?>
<svg width="22px" height="22px" viewBox="0 0 22 22" version="1.1" xmlns:xlink="http://www.w3.org/1999/xlink" xmlns="http://www.w3.org/2000/svg">
      <path d="M16.1849 0L2.14844 0C0.96372 0 0 0.96372 0 2.14844L0 16.1849C0 17.3696 0.96372 18.3333 2.14844 18.3333L16.1849 18.3333C17.3696 18.3333 18.3333 17.3696 18.3333 16.1849L18.3333 2.14844C18.3333 0.96372 17.3696 0 16.1849 0ZM16.1849 16.901C16.5798 16.901 16.901 16.5798 16.901 16.1849L16.901 2.14844C16.901 1.75358 16.5798 1.43229 16.1849 1.43229L2.14844 1.43229C1.75358 1.43229 1.43229 1.75358 1.43229 2.14844L1.43229 16.1849C1.43229 16.5798 1.75358 16.901 2.14844 16.901L16.1849 16.901ZM12.2026 8.65991L14.0541 6.80856C14.3373 6.52546 14.3277 6.06892 14.0541 5.79561L12.2026 3.94426C11.923 3.66465 11.4695 3.66465 11.1898 3.94426C10.9102 4.22386 10.9102 4.67733 11.1898 4.95707L11.8186 5.58594L4.78573 5.58594C4.39017 5.58594 4.06958 5.90652 4.06958 6.30208C4.06958 6.69764 4.39017 7.01823 4.78573 7.01823L11.8186 7.01823L11.1898 7.64709C10.9102 7.9267 10.9102 8.38017 11.1898 8.65991C11.4695 8.93951 11.9228 8.93965 12.2026 8.65991ZM14.2638 12.0313C14.2638 12.4268 13.9432 12.7474 13.5476 12.7474L6.51469 12.7474L7.14355 13.3763C7.42316 13.656 7.42316 14.1095 7.14355 14.3891C6.86381 14.6688 6.41034 14.6687 6.13074 14.3891L4.27925 12.5377C3.99769 12.2564 4.0037 11.8002 4.27925 11.5249L6.13074 9.67342C6.41034 9.39382 6.86381 9.39382 7.14355 9.67342C7.42316 9.95317 7.42316 10.4066 7.14355 10.6862L6.51469 11.3151L13.5476 11.3151C13.9432 11.3151 14.2638 11.6357 14.2638 12.0313Z" id="Shape" fill="#646363" fill-rule="evenodd" stroke="none" />

</svg>