<svg xmlns="http://www.w3.org/2000/svg" width="25" height="25" viewBox="0 0 25 25"><g><g><g/><g><g><path fill="#0e3570" d="M12.5 21.36a8.854 8.854 0 0 1-8.86-8.86 8.854 8.854 0 0 1 8.86-8.86 8.854 8.854 0 0 1 8.86 8.86 8.854 8.854 0 0 1-8.86 8.86zM12.5 2C6.696 2 2 6.697 2 12.5 2 18.304 6.697 23 12.5 23 18.304 23 23 18.303 23 12.5 23 6.696 18.303 2 12.5 2z"/></g><g><path fill="#0e3570" d="M12.911 7.29h-2.87a.82.82 0 1 0 0 1.64h2.87a1.232 1.232 0 0 1 0 2.46h-.82a.82.82 0 0 0-.82.822v1.18a.82.82 0 1 0 1.64 0v-.36a2.874 2.874 0 0 0 2.872-2.87A2.874 2.874 0 0 0 12.91 7.29z"/></g><g><path fill="#0e3570" d="M12.087 17.425a1.107 1.107 0 1 0 0-2.215 1.107 1.107 0 0 0 0 2.215z"/></g></g></g></g></svg>