<svg xmlns="http://www.w3.org/2000/svg" width="17" height="17" viewBox="0 0 17 17"><g><g><path fill="#ef3341" d="M11.938 10.936a.354.354 0 0 1 0 .501l-.5.5a.354.354 0 0 1-.502 0L8.5 9.503l-2.436 2.436a.354.354 0 0 1-.501 0l-.5-.5a.354.354 0 0 1 0-.502L7.497 8.5 5.062 6.064a.354.354 0 0 1 0-.501l.5-.5a.354.354 0 0 1 .502 0L8.5 7.497l2.436-2.436a.354.354 0 0 1 .501 0l.5.5a.354.354 0 0 1 0 .502L9.503 8.5zM8.5 0C3.813 0 0 3.813 0 8.5 0 13.187 3.813 17 8.5 17c4.687 0 8.5-3.813 8.5-8.5C17 3.813 13.187 0 8.5 0z"/></g></g></svg>