<svg xmlns="http://www.w3.org/2000/svg" width="24" height="24" viewBox="0 0 24 24"><g><g><g><path fill="#fff" d="M14.445 12.346a.82.82 0 0 1-.82.82H3.781a.82.82 0 1 1 0-1.64h9.844a.82.82 0 0 1 .82.82zm0-3.692a.82.82 0 0 1-.82.82H7.883a.82.82 0 1 1 0-1.64h5.742a.82.82 0 0 1 .82.82zm-7.793 0a.82.82 0 0 1-.82.82h-2.05a.82.82 0 1 1 0-1.64h2.05a.82.82 0 0 1 .82.82zM16.906.82v19.36a.82.82 0 0 1-.82.82H1.32a.82.82 0 0 1-.82-.82V.82A.82.82 0 0 1 1.653.07l3.359 1.493L8.37.071a.82.82 0 0 1 .666 0l3.358 1.492L15.753.071a.82.82 0 0 1 1.153.75zm-1.64 1.263L12.728 3.21a.82.82 0 0 1-.667 0L8.703 1.718 5.345 3.211a.82.82 0 0 1-.667 0L2.141 2.083v17.276h13.125z"/></g></g></g></svg>