<?xml version="1.0" encoding="utf-8"?>
<svg width="20px" height="20px" viewBox="0 0 20 20" version="1.1" xmlns:xlink="http://www.w3.org/1999/xlink" xmlns="http://www.w3.org/2000/svg">
    <path d="M0 0L20 0L20 20L0 20L0 0Z" id="Path" fill="none" stroke="none" />
    <path d="M3.33333 1.66667C3.33333 2.58333 2.58333 3.33333 1.66667 3.33333C0.75 3.33333 0 2.58333 0 1.66667C0 0.75 0.75 0 1.66667 0C2.58333 0 3.33333 0.75 3.33333 1.66667ZM1.66667 5C0.75 5 0 5.75 0 6.66667C0 7.58333 0.75 8.33333 1.66667 8.33333C2.58333 8.33333 3.33333 7.58333 3.33333 6.66667C3.33333 5.75 2.58333 5 1.66667 5ZM0 11.6667C0 10.75 0.75 10 1.66667 10C2.58333 10 3.33333 10.75 3.33333 11.6667C3.33333 12.5833 2.58333 13.3333 1.66667 13.3333C0.75 13.3333 0 12.5833 0 11.6667Z" transform="translate(8.333333 3.333333)" id="Shape" fill="#646363" fill-rule="evenodd" stroke="none" />
</svg>