<?xml version="1.0" encoding="utf-8"?>
<svg width="17px" height="17px" viewBox="0 0 17 17" version="1.1" xmlns:xlink="http://www.w3.org/1999/xlink" xmlns="http://www.w3.org/2000/svg">
 <path d="M0 0L8 0L8 2L0 2L0 0Z" transform="translate(0.5 0.5)" id="Rectangle" fill="#FFFFFF" stroke="none" />
  <path d="M0 0L8 0L8 2L0 2L0 0Z" transform="matrix(1.192488E-08 1 -1 1.192488E-08 2.5 0.5)" id="Rectangle" fill="#FFFFFF" stroke="none" />
  <path d="M8 16C12.4183 16 16 12.4183 16 8C16 3.58172 12.4183 0 8 0C3.58172 0 0 3.58172 0 8C0 12.4183 3.58172 16 8 16Z" transform="translate(0.5 0.5)" id="Oval" fill="#0E3570" stroke="none" />
</svg>