<svg xmlns="http://www.w3.org/2000/svg" width="20" height="20" viewBox="0 0 20 20"><g><g><g><path fill="#0e3570" d="M15.332 6.327l-2.02-2.024a.78.78 0 0 0-1.105 0 .784.784 0 0 0 0 1.107l.686.687H5.221a.782.782 0 0 0 0 1.566h7.672l-.686.687a.784.784 0 0 0 0 1.107.78.78 0 0 0 1.105 0l2.02-2.023a.786.786 0 0 0 0-1.107zm-.553 6.02H7.107l.686-.687a.784.784 0 0 0 0-1.107.78.78 0 0 0-1.105 0l-2.02 2.024c-.3.3-.307.8 0 1.107l2.02 2.023a.78.78 0 0 0 1.105 0 .784.784 0 0 0 0-1.107l-.686-.687h7.672a.782.782 0 0 0 0-1.566zm3.659 5.31c0 .43-.351.78-.782.78H2.344a.782.782 0 0 1-.781-.78V2.343c0-.431.35-.781.78-.781h15.313c.431 0 .782.35.782.78zM17.655 0H2.344A2.346 2.346 0 0 0 0 2.344v15.312A2.346 2.346 0 0 0 2.344 20h15.312A2.346 2.346 0 0 0 20 17.656V2.344A2.346 2.346 0 0 0 17.656 0z"/></g></g></g></svg>