<svg xmlns="http://www.w3.org/2000/svg" width="20" height="20" viewBox="0 0 20 20"><g><g><path fill="#646363" d="M10 13.736L2.528 10 5.39 8.57l4.26 2.13c.22.11.479.11.7 0l4.26-2.13L17.472 10zm7.472.873L10 18.345 2.528 14.61l2.862-1.43 4.26 2.13c.22.109.479.11.7 0l4.26-2.13zM10 1.655l7.472 3.74L10 9.137l-7.472-3.74zM19.569 9.3l-3.212-1.606 3.212-1.606a.782.782 0 0 0 0-1.397l-9.22-4.61a.782.782 0 0 0-.698 0L.43 4.692a.782.782 0 0 0 0 1.397l3.212 1.606L.431 9.301a.782.782 0 0 0 0 1.398l3.212 1.606L.431 13.91a.782.782 0 0 0 0 1.397l9.22 4.61c.22.11.478.11.698 0l9.22-4.61a.782.782 0 0 0 0-1.397l-3.212-1.606 3.212-1.606a.782.782 0 0 0 0-1.398z"/></g></g></svg>