<svg xmlns="http://www.w3.org/2000/svg" width="103" height="97" viewBox="0 0 103 97"><g><g opacity=".15"><path fill="#fff" d="M97.552 113.96a2.346 2.346 0 0 1-2.343 2.343H8.031a2.346 2.346 0 0 1-2.343-2.344V8.031A2.346 2.346 0 0 1 8.03 5.688h68.664v13.826a7.039 7.039 0 0 0 7.03 7.031h13.827zM81.391 9.001L94.248 21.86H83.734a2.346 2.346 0 0 1-2.344-2.343V9.002zm20.173 13.544l-20.86-20.86A2.345 2.345 0 0 0 79.047 1H8.03A7.04 7.04 0 0 0 1 8.031V113.97A7.04 7.04 0 0 0 8.031 121H95.22a7.04 7.04 0 0 0 7.031-7.031V24.203c0-.621-.247-1.218-.686-1.657z"/><path fill="none" stroke="#fff" stroke-miterlimit="20" stroke-width=".25" d="M97.552 113.96a2.346 2.346 0 0 1-2.343 2.343H8.031a2.346 2.346 0 0 1-2.343-2.344V8.031A2.346 2.346 0 0 1 8.03 5.688h68.664v13.826a7.039 7.039 0 0 0 7.03 7.031h13.827zM81.391 9.001L94.248 21.86H83.734a2.346 2.346 0 0 1-2.344-2.343V9.002zm20.173 13.544l-20.86-20.86A2.345 2.345 0 0 0 79.047 1H8.03A7.04 7.04 0 0 0 1 8.031V113.97A7.04 7.04 0 0 0 8.031 121H95.22a7.04 7.04 0 0 0 7.031-7.031V24.203c0-.621-.247-1.218-.686-1.657z"/></g><g opacity=".15"><path fill="#fff" d="M17.67 16.697a2.36 2.36 0 0 0-1.656-.687c-.62 0-1.221.25-1.657.687a2.361 2.361 0 0 0-.687 1.657c0 .616.25 1.22.687 1.657a2.357 2.357 0 0 0 1.657.686 2.36 2.36 0 0 0 1.657-.686c.435-.436.686-1.04.686-1.657a2.36 2.36 0 0 0-.686-1.657z"/><path fill="none" stroke="#fff" stroke-miterlimit="20" stroke-width=".25" d="M17.67 16.697a2.36 2.36 0 0 0-1.656-.687c-.62 0-1.221.25-1.657.687a2.361 2.361 0 0 0-.687 1.657c0 .616.25 1.22.687 1.657a2.357 2.357 0 0 0 1.657.686 2.36 2.36 0 0 0 1.657-.686c.435-.436.686-1.04.686-1.657a2.36 2.36 0 0 0-.686-1.657z"/></g><g opacity=".15"><path fill="#fff" d="M53.035 16.01H24.904a2.344 2.344 0 0 0 0 4.688h28.13a2.344 2.344 0 0 0 0-4.688z"/><path fill="none" stroke="#fff" stroke-miterlimit="20" stroke-width=".25" d="M53.035 16.01H24.904a2.344 2.344 0 0 0 0 4.688h28.13a2.344 2.344 0 0 0 0-4.688z"/></g><g opacity=".15"><path fill="#fff" d="M84.91 53.5H63.342V43.187h21.57zm0 15H63.342V58.187h21.57zm0 15H63.342V73.187h21.57zm-26.246-30H32.876V43.187h25.788zm0 15H32.876V58.187h25.788zm0 15H32.876V73.187h25.788zM28.2 53.5h-9.852V43.187h9.852zm0 15h-9.852V58.187h9.852zm0 15h-9.852V73.187h9.852zm59.055-45h-71.25a2.344 2.344 0 0 0-2.344 2.344v45a2.344 2.344 0 0 0 2.344 2.344h71.25a2.344 2.344 0 0 0 2.343-2.344v-45a2.344 2.344 0 0 0-2.343-2.344z"/><path fill="none" stroke="#fff" stroke-miterlimit="20" stroke-width=".25" d="M84.91 53.5H63.342V43.187h21.57zm0 15H63.342V58.187h21.57zm0 15H63.342V73.187h21.57zm-26.246-30H32.876V43.187h25.788zm0 15H32.876V58.187h25.788zm0 15H32.876V73.187h25.788zM28.2 53.5h-9.852V43.187h9.852zm0 15h-9.852V58.187h9.852zm0 15h-9.852V73.187h9.852zm59.055-45h-71.25a2.344 2.344 0 0 0-2.344 2.344v45a2.344 2.344 0 0 0 2.344 2.344h71.25a2.344 2.344 0 0 0 2.343-2.344v-45a2.344 2.344 0 0 0-2.343-2.344z"/></g><g opacity=".15"><path fill="#fff" d="M62.66 97.317a2.36 2.36 0 0 0-1.656-.687c-.617 0-1.221.25-1.657.687a2.361 2.361 0 0 0-.687 1.657c0 .616.25 1.22.687 1.657.436.436 1.04.686 1.657.686a2.36 2.36 0 0 0 1.657-.686c.435-.436.686-1.04.686-1.657a2.36 2.36 0 0 0-.686-1.657z"/><path fill="none" stroke="#fff" stroke-miterlimit="20" stroke-width=".25" d="M62.66 97.317a2.36 2.36 0 0 0-1.656-.687c-.617 0-1.221.25-1.657.687a2.361 2.361 0 0 0-.687 1.657c0 .616.25 1.22.687 1.657.436.436 1.04.686 1.657.686a2.36 2.36 0 0 0 1.657-.686c.435-.436.686-1.04.686-1.657a2.36 2.36 0 0 0-.686-1.657z"/></g><g opacity=".15"><path fill="#fff" d="M87.25 96.63H70.844a2.344 2.344 0 0 0 0 4.687H87.25a2.344 2.344 0 0 0 0-4.687z"/><path fill="none" stroke="#fff" stroke-miterlimit="20" stroke-width=".25" d="M87.25 96.63H70.844a2.344 2.344 0 0 0 0 4.687H87.25a2.344 2.344 0 0 0 0-4.687z"/></g></g></svg>