<svg xmlns="http://www.w3.org/2000/svg" width="19" height="19" viewBox="0 0 19 19"><g><g><path fill="#646363" d="M14.332 15.903v-4.919a.742.742 0 0 0-1.485 0v5.807a7.962 7.962 0 0 1-2.6.69v-5.383a.742.742 0 0 0-1.485 0v5.383a7.962 7.962 0 0 1-2.599-.69v-4.693a.742.742 0 0 0-1.485 0v3.805a8.035 8.035 0 0 1-2.739-3.73l1.932-1.93h5.634a.743.743 0 0 0 .525-.218l2.817-2.815v1.177a.742.742 0 0 0 1.485 0V5.418a.745.745 0 0 0-.742-.742h-2.971a.742.742 0 1 0 0 1.484h1.178l-2.6 2.598H3.564a.743.743 0 0 0-.525.217l-1.497 1.496a8.014 8.014 0 0 1 7.963-8.986 8.014 8.014 0 0 1 8.02 8.015 7.984 7.984 0 0 1-3.193 6.403zM9.5 0C4.25 0 0 4.249 0 9.5 0 14.75 4.249 19 9.5 19c5.25 0 9.5-4.249 9.5-9.5C19 4.25 14.751 0 9.5 0z"/></g></g></svg>