<svg xmlns="http://www.w3.org/2000/svg" width="20" height="20" viewBox="0 0 20 20"><g><g><g><path fill="#646363" d="M12.19 7.803V1.606c3.257.36 5.85 2.948 6.211 6.197zm5.298-5.286A8.537 8.537 0 0 0 11.41 0a.781.781 0 0 0-.781.781v7.813c0 .431.35.781.781.781h7.813c.431 0 .781-.35.781-.781a8.537 8.537 0 0 0-2.517-6.077z"/></g><g><path fill="#646363" d="M8.594 18.435a7.04 7.04 0 0 1-7.031-7.031c0-3.613 2.739-6.598 6.25-6.988v6.988c0 .431.35.781.78.781h6.989c-.39 3.51-3.375 6.25-6.988 6.25zm7.812-7.812H9.375V3.59a.781.781 0 0 0-.781-.781A8.589 8.589 0 0 0 0 11.404a8.589 8.589 0 0 0 8.594 8.594 8.589 8.589 0 0 0 8.594-8.594.781.781 0 0 0-.782-.781z"/></g></g></g></svg>