<svg xmlns="http://www.w3.org/2000/svg" width="21" height="18" viewBox="0 0 21 18"><g><g><path fill="#646363" d="M10.701 10.7V9.219c.393.188.666.42.666.785 0 .397-.295.607-.666.696zm-.611-3.536c-.415-.176-.698-.373-.698-.691 0-.263.207-.516.698-.614zm.72-1.336c.71.055.917.41 1.277.41.48 0 .676-.61.676-.908 0-.764-1.276-.94-1.953-.963V4.09c0-.155-.207-.298-.415-.298-.24 0-.414.143-.414.298v.31c-1.157.166-2.183.841-2.183 2.246 0 1.417 1.18 1.893 2.183 2.28v1.793c-.808-.144-1.179-.797-1.637-.797-.415 0-.742.553-.742.93 0 .708 1.07 1.394 2.379 1.438v.277c0 .154.174.298.414.298.208 0 .415-.144.415-.298v-.321c1.277-.21 2.15-1.04 2.15-2.413 0-1.493-1.157-2.014-2.15-2.39zm-4.93 8.941a7.377 7.377 0 0 1-2.825-5.81c0-4.042 3.247-7.33 7.237-7.33s7.236 3.288 7.236 7.33a7.377 7.377 0 0 1-2.825 5.81 25.028 25.028 0 0 0-4.411-.389c-1.497 0-2.977.132-4.411.39zm10.756.43a9.033 9.033 0 0 0 2.5-6.24C19.136 4.007 15.18 0 10.292 0S1.447 4.007 1.447 8.96c0 2.347.914 4.581 2.5 6.24-1.21.322-2.374.738-3.475 1.243a.819.819 0 0 0-.4 1.078.8.8 0 0 0 1.064.406c5.562-2.553 12.75-2.553 18.311 0a.8.8 0 0 0 1.064-.406.819.819 0 0 0-.4-1.078 21.841 21.841 0 0 0-3.475-1.244z"/></g></g></svg>