<svg xmlns="http://www.w3.org/2000/svg" width="19" height="19" viewBox="0 0 19 19"><g><g><g><path fill="#646363" d="M7.125 9.5A2.378 2.378 0 0 1 9.5 7.125 2.378 2.378 0 0 1 11.875 9.5 2.378 2.378 0 0 1 9.5 11.875 2.378 2.378 0 0 1 7.125 9.5zm4.527-3.202A3.837 3.837 0 0 0 9.5 5.641 3.864 3.864 0 0 0 5.64 9.5a3.864 3.864 0 0 0 3.86 3.86 3.864 3.864 0 0 0 3.86-3.86c0-.796-.243-1.537-.658-2.152l1.521-1.522a.742.742 0 1 0-1.05-1.05zM9.505 17.526a8.016 8.016 0 0 1-8.02-8.021 8.016 8.016 0 0 1 8.02-8.02 8.016 8.016 0 0 1 8.02 8.02 8.016 8.016 0 0 1-8.02 8.02zM9.5 0C4.25 0 0 4.249 0 9.5 0 14.75 4.249 19 9.5 19c5.25 0 9.5-4.249 9.5-9.5C19 4.25 14.751 0 9.5 0z"/></g></g></g></svg>