<svg xmlns="http://www.w3.org/2000/svg" width="16" height="16" viewBox="0 0 16 16"><g><g><g><path fill="#fff" d="M15.43 2.207a.625.625 0 0 0-.68.566l-.083.908C13.262 1.475 10.823 0 7.997 0 4.958 0 2.279 1.735.95 4.34a.625.625 0 1 0 1.113.568C3.187 2.704 5.447 1.25 7.998 1.25a6.66 6.66 0 0 1 5.623 3.107l-.891-.637a.625.625 0 0 0-.727 1.017l2.703 1.93a.625.625 0 0 0 .985-.452l.304-3.329a.625.625 0 0 0-.566-.679z"/></g><g><path fill="#fff" d="M14.777 10.824a.625.625 0 0 0-.841.272C12.81 13.3 10.55 14.754 8 14.754a6.66 6.66 0 0 1-5.624-3.107l.892.637a.625.625 0 0 0 .726-1.017l-2.702-1.93a.626.626 0 0 0-.986.452l-.303 3.329a.625.625 0 0 0 1.244.113l.083-.908c1.405 2.206 3.844 3.681 6.67 3.681 3.04 0 5.72-1.735 7.049-4.34a.625.625 0 0 0-.272-.84z"/></g></g></g></svg>