<svg xmlns="http://www.w3.org/2000/svg" width="102" height="96" viewBox="0 0 102 96"><g><g opacity=".1"><path fill="#fff" d="M51.002 33.074a1.993 1.993 0 1 0-.001-3.986 1.993 1.993 0 0 0 .001 3.986z"/></g><g opacity=".1"><path fill="#fff" d="M59.597 30.841a1.992 1.992 0 0 0-1.567 3.664A17.931 17.931 0 0 1 68.934 51c0 9.886-8.044 17.93-17.93 17.93S33.074 60.887 33.074 51c0-7.187 4.28-13.662 10.904-16.496a1.993 1.993 0 0 0-1.567-3.664 21.911 21.911 0 0 0-13.321 20.16c0 12.083 9.831 21.914 21.914 21.914 12.083 0 21.914-9.83 21.914-21.914a21.911 21.911 0 0 0-13.321-20.16z"/></g><g opacity=".1"><path fill="#fff" d="M51.204 52.847c1.099 0 1.992.895 1.992 1.993a1.994 1.994 0 0 1-1.992 1.992c-.851 0-1.77-.536-2.587-1.507a1.99 1.99 0 1 0-3.05 2.564c1.065 1.267 2.318 2.15 3.645 2.594v2.325a1.992 1.992 0 1 0 3.984 0v-2.334a5.986 5.986 0 0 0 3.985-5.634 5.983 5.983 0 0 0-5.977-5.977 1.994 1.994 0 0 1-1.992-1.992c0-1.098.893-1.992 1.992-1.992.706 0 1.45.36 2.155 1.041a1.992 1.992 0 1 0 2.77-2.863c-1.01-.978-2.022-1.532-2.933-1.834v-2.32a1.992 1.992 0 1 0-3.984 0v2.335a5.985 5.985 0 0 0-3.984 5.633 5.983 5.983 0 0 0 5.976 5.976z"/></g><g opacity=".1"><path fill="#fff" d="M76.055 90.41l-6.432-11.139a34.08 34.08 0 0 0 9.648-9.648l11.14 6.432A49.367 49.367 0 0 1 76.054 90.41zM11.59 76.055l11.139-6.432a34.08 34.08 0 0 0 9.648 9.648l-6.432 11.14A49.367 49.367 0 0 1 11.59 76.054zM25.945 11.59l6.432 11.139a34.09 34.09 0 0 0-9.648 9.648l-11.14-6.433A49.374 49.374 0 0 1 25.946 11.59zM90.41 25.945l-11.139 6.432a34.08 34.08 0 0 0-9.648-9.648l6.432-11.14A49.367 49.367 0 0 1 90.41 25.946zm-5.604 23.063a33.814 33.814 0 0 0-3.538-13.184l11.184-6.457c3.32 6.141 5.206 12.86 5.517 19.64zM49.008 17.194a33.814 33.814 0 0 0-13.184 3.538L29.367 9.549c6.141-3.32 12.86-5.207 19.64-5.517zm17.168 3.538a33.814 33.814 0 0 0-13.184-3.538V4.032c6.78.31 13.5 2.197 19.641 5.516zM9.549 29.367l11.183 6.457a33.814 33.814 0 0 0-3.538 13.184H4.032c.31-6.78 2.197-13.5 5.517-19.641zm0 43.266c-3.32-6.141-5.207-12.86-5.517-19.64h13.162a33.814 33.814 0 0 0 3.538 13.183zm41.446 8.24c-16.58 0-29.878-13.51-29.878-29.878 0-16.58 13.51-29.878 29.878-29.878 16.566 0 29.878 13.497 29.878 29.878 0 16.316-13.246 29.878-29.878 29.878zm1.997 3.933a33.814 33.814 0 0 0 13.184-3.538l6.457 11.184c-6.141 3.32-12.86 5.206-19.64 5.516zm-17.168-3.538a33.814 33.814 0 0 0 13.184 3.538v13.163c-6.78-.31-13.5-2.198-19.641-5.517zm56.628-8.635l-11.184-6.457a33.828 33.828 0 0 0 3.538-13.186h13.163c-.31 6.781-2.198 13.502-5.517 19.643zM51 0C23.422 0 0 23.643 0 51c0 27.578 23.643 51 51 51 27.514 0 51-23.59 51-51 0-27.22-23.344-51-51-51z"/></g></g></svg>