<svg xmlns="http://www.w3.org/2000/svg" width="75" height="68" viewBox="0 0 75 68"><g><g clip-path="url(#clip-8CDA9F43-05C4-4FA4-8A90-19B12257397E)" opacity=".25"><g opacity=".25"><path fill="#fff" d="M64.003 27.47c-12.94 0-23.467-10.528-23.467-23.467 0-12.938 10.528-23.466 23.467-23.466 12.94 0 23.467 10.528 23.467 23.466S76.942 27.469 64.003 27.469zm0-51.2C48.71-23.73 36.27-11.289 36.27 4.003c0 15.291 12.442 27.732 27.733 27.732S91.736 19.294 91.736 4.003c0-15.292-12.442-27.733-27.733-27.733z"/></g><g opacity=".25"><path fill="#fff" d="M97.502-29.505a2.131 2.131 0 0 0-3.017 0l-6.4 6.4a2.131 2.131 0 0 0 1.509 3.642c.546 0 1.092-.209 1.508-.625l6.4-6.4a2.13 2.13 0 0 0 0-3.017z"/></g><g opacity=".25"><path fill="#fff" d="M39.912-23.105l-6.4-6.4a2.131 2.131 0 0 0-3.017 0 2.131 2.131 0 0 0 0 3.017l6.4 6.4c.416.416.962.625 1.509.625a2.131 2.131 0 0 0 1.508-3.642z"/></g><g opacity=".25"><path fill="#fff" d="M34.55 16.52a2.133 2.133 0 0 0-2.798-1.129L6.229 26.237A2.136 2.136 0 0 0 5.1 29.036a2.137 2.137 0 0 0 2.797 1.128L33.422 19.32a2.136 2.136 0 0 0 1.129-2.8z"/></g><g opacity=".25"><path fill="#fff" d="M90.164 60.102L79.318 34.579a2.135 2.135 0 0 0-3.928 1.67l10.846 25.523a2.137 2.137 0 0 0 2.799 1.129 2.136 2.136 0 0 0 1.129-2.8z"/></g><g opacity=".25"><path fill="#fff" d="M53.105-28.953L38.172-58.819a2.134 2.134 0 0 0-3.816 1.91l14.933 29.866a2.13 2.13 0 0 0 2.863.953 2.134 2.134 0 0 0 .953-2.863z"/></g><g opacity=".25"><path fill="#fff" d="M51.483 33.451a2.133 2.133 0 0 0-2.799 1.129L37.84 60.105a2.135 2.135 0 0 0 3.928 1.67L52.61 36.25a2.134 2.134 0 0 0-1.128-2.799z"/></g><g opacity=".25"><path fill="#fff" d="M121.774 26.234L96.25 15.391a2.135 2.135 0 0 0-1.67 3.928l25.525 10.843a2.134 2.134 0 0 0 1.67-3.927z"/></g><g opacity=".25"><path fill="#fff" d="M30.76-12.872l-27.733-12.8a2.131 2.131 0 0 0-2.83 1.043 2.135 2.135 0 0 0 1.042 2.831l27.733 12.8a2.132 2.132 0 0 0 1.788-3.874z"/></g><g opacity=".25"><path fill="#fff" d="M92.682-59.773a2.131 2.131 0 0 0-2.863.954L74.886-28.953a2.134 2.134 0 0 0 3.816 1.91L93.635-56.91a2.134 2.134 0 0 0-.953-2.863z"/></g><g opacity=".25"><path fill="#fff" d="M127.803-24.629a2.132 2.132 0 0 0-2.83-1.043l-27.734 12.8a2.134 2.134 0 1 0 1.788 3.874l27.733-12.8a2.133 2.133 0 0 0 1.043-2.83z"/></g><g opacity=".25"><path fill="#fff" d="M64.003 48.8a2.134 2.134 0 0 0-2.133 2.133v14.933a2.134 2.134 0 0 0 4.266 0V50.933a2.134 2.134 0 0 0-2.133-2.133z"/></g><g opacity=".25"><path fill="#fff" d="M64.003 36a2.134 2.134 0 0 0-2.133 2.133V42.4a2.134 2.134 0 0 0 4.266 0v-4.267A2.134 2.134 0 0 0 64.003 36z"/></g><g opacity=".25"><path fill="#fff" d="M64.003-60a2.134 2.134 0 0 0-2.133 2.133v14.933a2.134 2.134 0 0 0 4.266 0v-14.933A2.134 2.134 0 0 0 64.003-60z"/></g><g opacity=".25"><path fill="#fff" d="M64.003-36.53a2.134 2.134 0 0 0-2.133 2.133v4.267a2.134 2.134 0 0 0 4.266 0v-4.267a2.134 2.134 0 0 0-2.133-2.133z"/></g><g opacity=".25"><path fill="#fff" d="M17.066 1.87H2.133a2.134 2.134 0 0 0 0 4.266h14.933a2.134 2.134 0 0 0 0-4.266z"/></g><g opacity=".25"><path fill="#fff" d="M29.87 1.87h-4.267a2.134 2.134 0 0 0 0 4.266h4.267a2.134 2.134 0 0 0 0-4.266z"/></g><g opacity=".25"><path fill="#fff" d="M125.866 1.87h-14.933a2.134 2.134 0 0 0 0 4.266h14.933a2.134 2.134 0 0 0 0-4.266z"/></g><g opacity=".25"><path fill="#fff" d="M102.4 1.87h-4.267a2.134 2.134 0 0 0 0 4.266h4.267a2.134 2.134 0 0 0 0-4.266z"/></g><g opacity=".25"><path fill="#fff" d="M39.912 28.096a2.131 2.131 0 0 0-3.017 0l-6.4 6.4a2.131 2.131 0 0 0 1.509 3.641c.546 0 1.092-.209 1.508-.625l6.4-6.4a2.131 2.131 0 0 0 0-3.016z"/></g><g opacity=".25"><path fill="#fff" d="M97.502 34.495l-6.4-6.4a2.131 2.131 0 0 0-3.017 0 2.131 2.131 0 0 0 0 3.017l6.4 6.4c.417.416.963.625 1.509.625.546 0 1.092-.209 1.508-.625a2.13 2.13 0 0 0 0-3.017z"/></g><g opacity=".25"><path fill="#fff" d="M64-15.2C53.412-15.2 44.8-6.586 44.8 4a2.134 2.134 0 0 0 4.266 0c0-8.235 6.699-14.933 14.933-14.933a2.134 2.134 0 0 0 0-4.267z"/></g></g></g></svg>