<svg xmlns="http://www.w3.org/2000/svg" width="19" height="19" viewBox="0 0 19 19"><g><g><g><path fill="#ffda29" d="M9.496 4.48A5.021 5.021 0 0 0 4.48 9.496a5.021 5.021 0 0 0 5.016 5.015 5.021 5.021 0 0 0 5.015-5.015A5.021 5.021 0 0 0 9.496 4.48z"/></g><g><path fill="#ffda29" d="M9.487 3.398a.807.807 0 0 0 .808-.808V.807a.807.807 0 1 0-1.615 0V2.59c0 .446.361.808.807.808z"/></g><g><path fill="#ffda29" d="M9.487 15.59a.807.807 0 0 0-.807.807v1.783a.807.807 0 0 0 1.615 0v-1.783a.807.807 0 0 0-.808-.807z"/></g><g><path fill="#ffda29" d="M4.043 5.185a.805.805 0 0 0 1.142 0 .807.807 0 0 0 0-1.141L4.068 2.926a.807.807 0 1 0-1.142 1.142z"/></g><g><path fill="#ffda29" d="M14.938 13.796a.807.807 0 0 0-1.142 1.142l1.118 1.117a.805.805 0 0 0 1.141 0 .807.807 0 0 0 0-1.141z"/></g><g><path fill="#ffda29" d="M3.398 9.487a.807.807 0 0 0-.808-.807H.807a.807.807 0 1 0 0 1.615H2.59a.807.807 0 0 0 .808-.808z"/></g><g><path fill="#ffda29" d="M18.18 8.68h-1.783a.807.807 0 1 0 0 1.615h1.783a.807.807 0 0 0 0-1.615z"/></g><g><path fill="#ffda29" d="M14.367 5.422a.805.805 0 0 0 .571-.237l1.117-1.117a.807.807 0 0 0-1.142-1.142l-1.117 1.118a.807.807 0 0 0 .571 1.378z"/></g><g><path fill="#ffda29" d="M4.044 13.796l-1.118 1.118a.807.807 0 1 0 1.142 1.141l1.117-1.117a.807.807 0 1 0-1.141-1.142z"/></g></g></g></svg>